<mxfile host="app.diagrams.net" modified="2023-04-16T11:16:21.083Z" agent="Mozilla/5.0 (Windows NT 10.0; Win64; x64) AppleWebKit/537.36 (KHTML, like Gecko) Chrome/112.0.0.0 Safari/537.36" etag="wiSa1CT9_qPCaJDXAPVs" version="21.1.8" type="device">
  <diagram name="Sayfa -1" id="oOXjP21gS_0NzCvxsK9y">
    <mxGraphModel dx="1615" dy="2001" grid="1" gridSize="10" guides="1" tooltips="1" connect="1" arrows="1" fold="1" page="1" pageScale="1" pageWidth="827" pageHeight="1169" math="0" shadow="0">
      <root>
        <mxCell id="0" />
        <mxCell id="1" parent="0" />
        <mxCell id="LxvHRwvkGJLe6ZTlQNQR-3" style="edgeStyle=orthogonalEdgeStyle;rounded=0;orthogonalLoop=1;jettySize=auto;html=1;entryX=1;entryY=0.5;entryDx=0;entryDy=0;exitX=1;exitY=0.5;exitDx=0;exitDy=0;fontStyle=1;fontSize=10;" edge="1" parent="1" source="TfWZA4SYUfdNKzVl_Quy-1" target="LxvHRwvkGJLe6ZTlQNQR-4">
          <mxGeometry relative="1" as="geometry">
            <mxPoint x="520" y="39.99999999999994" as="targetPoint" />
            <Array as="points">
              <mxPoint x="490" y="110" />
              <mxPoint x="490" y="-10" />
            </Array>
          </mxGeometry>
        </mxCell>
        <mxCell id="LxvHRwvkGJLe6ZTlQNQR-7" style="edgeStyle=orthogonalEdgeStyle;rounded=0;orthogonalLoop=1;jettySize=auto;html=1;entryX=0.5;entryY=0;entryDx=0;entryDy=0;fontStyle=1;fontSize=10;" edge="1" parent="1" source="TfWZA4SYUfdNKzVl_Quy-1" target="LxvHRwvkGJLe6ZTlQNQR-6">
          <mxGeometry relative="1" as="geometry" />
        </mxCell>
        <mxCell id="TfWZA4SYUfdNKzVl_Quy-1" value="Dakika 0,15,30,45 mi?" style="rounded=0;whiteSpace=wrap;html=1;fillColor=#dae8fc;strokeColor=#6c8ebf;fontStyle=1;fontSize=10;" parent="1" vertex="1">
          <mxGeometry x="300" y="80" width="160" height="80" as="geometry" />
        </mxCell>
        <mxCell id="TfWZA4SYUfdNKzVl_Quy-2" value="e" style="text;html=1;strokeColor=none;fillColor=none;align=center;verticalAlign=middle;whiteSpace=wrap;rounded=0;fontStyle=1;fontSize=10;" parent="1" vertex="1">
          <mxGeometry x="350" y="160" width="30" height="20" as="geometry" />
        </mxCell>
        <mxCell id="LxvHRwvkGJLe6ZTlQNQR-1" value="h" style="text;html=1;strokeColor=none;fillColor=none;align=center;verticalAlign=middle;whiteSpace=wrap;rounded=0;fontStyle=1;fontSize=10;" vertex="1" parent="1">
          <mxGeometry x="460" y="90" width="20" height="20" as="geometry" />
        </mxCell>
        <mxCell id="LxvHRwvkGJLe6ZTlQNQR-2" style="edgeStyle=orthogonalEdgeStyle;rounded=0;orthogonalLoop=1;jettySize=auto;html=1;exitX=0.5;exitY=1;exitDx=0;exitDy=0;fontStyle=1;fontSize=10;" edge="1" parent="1" source="LxvHRwvkGJLe6ZTlQNQR-1" target="LxvHRwvkGJLe6ZTlQNQR-1">
          <mxGeometry relative="1" as="geometry" />
        </mxCell>
        <mxCell id="LxvHRwvkGJLe6ZTlQNQR-5" style="edgeStyle=orthogonalEdgeStyle;rounded=0;orthogonalLoop=1;jettySize=auto;html=1;entryX=0.5;entryY=0;entryDx=0;entryDy=0;fontStyle=1;fontSize=10;" edge="1" parent="1" source="LxvHRwvkGJLe6ZTlQNQR-4" target="TfWZA4SYUfdNKzVl_Quy-1">
          <mxGeometry relative="1" as="geometry" />
        </mxCell>
        <mxCell id="LxvHRwvkGJLe6ZTlQNQR-4" value="START" style="rounded=0;whiteSpace=wrap;html=1;fillColor=#ffe6cc;strokeColor=#d79b00;fontStyle=1;fontSize=10;" vertex="1" parent="1">
          <mxGeometry x="320" y="-40" width="120" height="60" as="geometry" />
        </mxCell>
        <mxCell id="LxvHRwvkGJLe6ZTlQNQR-10" style="edgeStyle=orthogonalEdgeStyle;rounded=0;orthogonalLoop=1;jettySize=auto;html=1;entryX=0.5;entryY=0;entryDx=0;entryDy=0;fontStyle=1;fontSize=10;" edge="1" parent="1" source="LxvHRwvkGJLe6ZTlQNQR-6" target="LxvHRwvkGJLe6ZTlQNQR-9">
          <mxGeometry relative="1" as="geometry" />
        </mxCell>
        <mxCell id="LxvHRwvkGJLe6ZTlQNQR-13" style="edgeStyle=orthogonalEdgeStyle;rounded=0;orthogonalLoop=1;jettySize=auto;html=1;entryX=1;entryY=1;entryDx=0;entryDy=0;exitX=1;exitY=0.5;exitDx=0;exitDy=0;fontStyle=1;fontSize=10;" edge="1" parent="1" source="LxvHRwvkGJLe6ZTlQNQR-6" target="TfWZA4SYUfdNKzVl_Quy-1">
          <mxGeometry relative="1" as="geometry">
            <Array as="points">
              <mxPoint x="520" y="240" />
              <mxPoint x="520" y="160" />
            </Array>
          </mxGeometry>
        </mxCell>
        <mxCell id="LxvHRwvkGJLe6ZTlQNQR-6" value="İlk 15 dakikası geçen ders var mı?" style="rounded=0;whiteSpace=wrap;html=1;fillColor=#dae8fc;strokeColor=#6c8ebf;fontStyle=1;fontSize=10;" vertex="1" parent="1">
          <mxGeometry x="300" y="200" width="160" height="80" as="geometry" />
        </mxCell>
        <mxCell id="LxvHRwvkGJLe6ZTlQNQR-21" style="edgeStyle=orthogonalEdgeStyle;rounded=0;orthogonalLoop=1;jettySize=auto;html=1;entryX=0.5;entryY=0;entryDx=0;entryDy=0;fontStyle=1;fontSize=10;" edge="1" parent="1" source="LxvHRwvkGJLe6ZTlQNQR-8" target="LxvHRwvkGJLe6ZTlQNQR-20">
          <mxGeometry relative="1" as="geometry" />
        </mxCell>
        <mxCell id="LxvHRwvkGJLe6ZTlQNQR-8" value="CihazIstekleri tablosundaki &quot;WAITING&quot; olarak nitelenmiş ilgili dersin kayıtlarını kullanarak &quot;Yoklama&quot; tablosundaki öğrencileri &quot;KATILDI&quot; veya &quot;KATILMADI&quot; olarak işaretle. Kartın okunma saati dersin başlama saatinden 15 dakika fazlaysa &quot;KATILMADI&quot; olarak işaretle." style="rounded=0;whiteSpace=wrap;html=1;fillColor=#dae8fc;strokeColor=#6c8ebf;fontStyle=1;fontSize=10;" vertex="1" parent="1">
          <mxGeometry x="300" y="440" width="160" height="170" as="geometry" />
        </mxCell>
        <mxCell id="LxvHRwvkGJLe6ZTlQNQR-15" style="edgeStyle=orthogonalEdgeStyle;rounded=0;orthogonalLoop=1;jettySize=auto;html=1;entryX=0.5;entryY=0;entryDx=0;entryDy=0;fontStyle=1;fontSize=10;" edge="1" parent="1" source="LxvHRwvkGJLe6ZTlQNQR-9" target="LxvHRwvkGJLe6ZTlQNQR-8">
          <mxGeometry relative="1" as="geometry" />
        </mxCell>
        <mxCell id="LxvHRwvkGJLe6ZTlQNQR-9" value="İlgili dersin öğrencilerini Yoklama tablosuna ekle." style="rounded=0;whiteSpace=wrap;html=1;fillColor=#dae8fc;strokeColor=#6c8ebf;fontStyle=1;fontSize=10;" vertex="1" parent="1">
          <mxGeometry x="300" y="320" width="160" height="80" as="geometry" />
        </mxCell>
        <mxCell id="LxvHRwvkGJLe6ZTlQNQR-11" value="Bu algoritmadan bağımsız olarak API üzerinden gelen cihaz istekleri CihazIstekleri tablosuna doldurulmaktadır." style="rounded=0;whiteSpace=wrap;html=1;fillColor=#e1d5e7;strokeColor=#9673a6;dashed=1;fontStyle=1;fontSize=10;" vertex="1" parent="1">
          <mxGeometry x="550" y="-40" width="190" height="60" as="geometry" />
        </mxCell>
        <mxCell id="LxvHRwvkGJLe6ZTlQNQR-12" value="e" style="text;html=1;strokeColor=none;fillColor=none;align=center;verticalAlign=middle;whiteSpace=wrap;rounded=0;fontStyle=1;fontSize=10;" vertex="1" parent="1">
          <mxGeometry x="350" y="280" width="30" height="20" as="geometry" />
        </mxCell>
        <mxCell id="LxvHRwvkGJLe6ZTlQNQR-14" value="h" style="text;html=1;strokeColor=none;fillColor=none;align=center;verticalAlign=middle;whiteSpace=wrap;rounded=0;fontStyle=1;fontSize=10;" vertex="1" parent="1">
          <mxGeometry x="460" y="220" width="20" height="20" as="geometry" />
        </mxCell>
        <mxCell id="LxvHRwvkGJLe6ZTlQNQR-17" value="Bu kontrol @Scheduled anotasyonuna sahip yoklamaKontrol() fonksiyonu tarafından yapılmaktadır.&amp;nbsp;" style="rounded=0;whiteSpace=wrap;html=1;dashed=1;fillColor=#e1d5e7;strokeColor=#9673a6;fontStyle=1;fontSize=10;" vertex="1" parent="1">
          <mxGeometry x="80" y="80" width="170" height="60" as="geometry" />
        </mxCell>
        <mxCell id="LxvHRwvkGJLe6ZTlQNQR-18" value="&quot;Ders&quot; tablosunda dersin günü sistem günü ile aynı olan ve dersin saati sistem saatinden 15 eksik olan dersler&amp;nbsp;" style="rounded=0;whiteSpace=wrap;html=1;fillColor=#e1d5e7;strokeColor=#9673a6;dashed=1;fontStyle=1;fontSize=10;" vertex="1" parent="1">
          <mxGeometry x="80" y="200" width="170" height="80" as="geometry" />
        </mxCell>
        <mxCell id="LxvHRwvkGJLe6ZTlQNQR-22" style="edgeStyle=orthogonalEdgeStyle;rounded=0;orthogonalLoop=1;jettySize=auto;html=1;" edge="1" parent="1" source="LxvHRwvkGJLe6ZTlQNQR-20">
          <mxGeometry relative="1" as="geometry">
            <mxPoint x="460" y="140" as="targetPoint" />
            <Array as="points">
              <mxPoint x="550" y="680" />
              <mxPoint x="550" y="140" />
            </Array>
          </mxGeometry>
        </mxCell>
        <mxCell id="LxvHRwvkGJLe6ZTlQNQR-20" value="CihazIstekleri tablosundaki KATILDI veya KATILMADI olarak işaretlenen kayıtları sil.&amp;nbsp;" style="rounded=0;whiteSpace=wrap;html=1;fillColor=#dae8fc;strokeColor=#6c8ebf;fontStyle=1;fontSize=10;" vertex="1" parent="1">
          <mxGeometry x="300" y="640" width="160" height="80" as="geometry" />
        </mxCell>
      </root>
    </mxGraphModel>
  </diagram>
</mxfile>
